<mxfile host="65bd71144e">
    <diagram id="aVd6pq9h1cCU0UltgTHr" name="Page-1">
        <mxGraphModel dx="1904" dy="878" grid="1" gridSize="10" guides="1" tooltips="1" connect="1" arrows="1" fold="1" page="1" pageScale="1" pageWidth="827" pageHeight="1169" math="0" shadow="0">
            <root>
                <mxCell id="0"/>
                <mxCell id="1" parent="0"/>
                <mxCell id="2" value="Cocktails" style="rounded=1;whiteSpace=wrap;html=1;" vertex="1" parent="1">
                    <mxGeometry y="10" width="830" height="60" as="geometry"/>
                </mxCell>
                <mxCell id="3" value="Home&lt;br&gt;" style="text;html=1;strokeColor=none;fillColor=none;align=center;verticalAlign=middle;whiteSpace=wrap;rounded=0;" vertex="1" parent="1">
                    <mxGeometry x="10" y="25" width="60" height="30" as="geometry"/>
                </mxCell>
                <mxCell id="4" value="Cocktail of the day" style="rounded=1;whiteSpace=wrap;html=1;" vertex="1" parent="1">
                    <mxGeometry x="300" y="230" width="240" height="130" as="geometry"/>
                </mxCell>
                <mxCell id="6" value="img" style="rounded=1;whiteSpace=wrap;html=1;" vertex="1" parent="1">
                    <mxGeometry x="120" y="380" width="250" height="160" as="geometry"/>
                </mxCell>
                <mxCell id="8" value="Recipe" style="rounded=1;whiteSpace=wrap;html=1;" vertex="1" parent="1">
                    <mxGeometry x="400" y="380" width="270" height="160" as="geometry"/>
                </mxCell>
                <mxCell id="9" value="Search by name" style="rounded=1;whiteSpace=wrap;html=1;" vertex="1" parent="1">
                    <mxGeometry x="140" y="110" width="540" height="60" as="geometry"/>
                </mxCell>
                <mxCell id="10" value="Search by name" style="rounded=1;whiteSpace=wrap;html=1;" vertex="1" parent="1">
                    <mxGeometry x="680" y="20" width="130" height="40" as="geometry"/>
                </mxCell>
                <mxCell id="GkdboyqOjX0dJ93F5Otj-11" value="Ingredients&lt;br&gt;" style="text;html=1;strokeColor=none;fillColor=none;align=center;verticalAlign=middle;whiteSpace=wrap;rounded=0;" vertex="1" parent="1">
                    <mxGeometry x="90" y="25" width="60" height="30" as="geometry"/>
                </mxCell>
                <mxCell id="GkdboyqOjX0dJ93F5Otj-12" value="" style="endArrow=none;html=1;" edge="1" parent="1">
                    <mxGeometry width="50" height="50" relative="1" as="geometry">
                        <mxPoint x="30" y="620" as="sourcePoint"/>
                        <mxPoint x="790" y="620" as="targetPoint"/>
                    </mxGeometry>
                </mxCell>
                <mxCell id="GkdboyqOjX0dJ93F5Otj-13" value="Home&lt;br&gt;" style="text;html=1;strokeColor=none;fillColor=none;align=center;verticalAlign=middle;whiteSpace=wrap;rounded=0;" vertex="1" parent="1">
                    <mxGeometry x="15" y="645" width="60" height="30" as="geometry"/>
                </mxCell>
                <mxCell id="GkdboyqOjX0dJ93F5Otj-14" value="Ingredients&lt;br&gt;" style="text;html=1;strokeColor=none;fillColor=none;align=center;verticalAlign=middle;whiteSpace=wrap;rounded=0;" vertex="1" parent="1">
                    <mxGeometry x="95" y="645" width="60" height="30" as="geometry"/>
                </mxCell>
                <mxCell id="GkdboyqOjX0dJ93F5Otj-20" value="Search by ingredients" style="rounded=1;whiteSpace=wrap;html=1;" vertex="1" parent="1">
                    <mxGeometry x="140" y="710" width="540" height="60" as="geometry"/>
                </mxCell>
                <mxCell id="GkdboyqOjX0dJ93F5Otj-56" value="" style="rounded=0;whiteSpace=wrap;html=1;" vertex="1" parent="1">
                    <mxGeometry x="-2.5" y="1373" width="825" height="20" as="geometry"/>
                </mxCell>
                <mxCell id="GkdboyqOjX0dJ93F5Otj-57" value="" style="group" vertex="1" connectable="0" parent="1">
                    <mxGeometry x="5" y="630" width="830" height="60" as="geometry"/>
                </mxCell>
                <mxCell id="GkdboyqOjX0dJ93F5Otj-15" value="Cocktails" style="rounded=1;whiteSpace=wrap;html=1;" vertex="1" parent="GkdboyqOjX0dJ93F5Otj-57">
                    <mxGeometry width="830" height="60" as="geometry"/>
                </mxCell>
                <mxCell id="GkdboyqOjX0dJ93F5Otj-16" value="Search" style="rounded=1;whiteSpace=wrap;html=1;" vertex="1" parent="GkdboyqOjX0dJ93F5Otj-57">
                    <mxGeometry x="680" y="10" width="130" height="40" as="geometry"/>
                </mxCell>
                <mxCell id="GkdboyqOjX0dJ93F5Otj-17" value="Home" style="text;html=1;strokeColor=none;fillColor=none;align=center;verticalAlign=middle;whiteSpace=wrap;rounded=0;" vertex="1" parent="GkdboyqOjX0dJ93F5Otj-57">
                    <mxGeometry x="10" y="15" width="60" height="30" as="geometry"/>
                </mxCell>
                <mxCell id="GkdboyqOjX0dJ93F5Otj-18" value="Ingredients" style="text;html=1;strokeColor=none;fillColor=none;align=center;verticalAlign=middle;whiteSpace=wrap;rounded=0;" vertex="1" parent="GkdboyqOjX0dJ93F5Otj-57">
                    <mxGeometry x="90" y="15" width="60" height="30" as="geometry"/>
                </mxCell>
                <mxCell id="GkdboyqOjX0dJ93F5Otj-63" value="Nav bar" style="rounded=0;whiteSpace=wrap;html=1;" vertex="1" parent="1">
                    <mxGeometry x="10" y="1410" width="820" height="60" as="geometry"/>
                </mxCell>
                <mxCell id="GkdboyqOjX0dJ93F5Otj-69" value="" style="group" vertex="1" connectable="0" parent="1">
                    <mxGeometry x="70" y="1850" width="680" height="360" as="geometry"/>
                </mxCell>
                <mxCell id="GkdboyqOjX0dJ93F5Otj-64" value="" style="rounded=0;whiteSpace=wrap;html=1;" vertex="1" parent="GkdboyqOjX0dJ93F5Otj-69">
                    <mxGeometry width="680" height="360" as="geometry"/>
                </mxCell>
                <mxCell id="GkdboyqOjX0dJ93F5Otj-54" value="img" style="rounded=1;whiteSpace=wrap;html=1;" vertex="1" parent="GkdboyqOjX0dJ93F5Otj-69">
                    <mxGeometry y="50" width="250" height="280" as="geometry"/>
                </mxCell>
                <mxCell id="GkdboyqOjX0dJ93F5Otj-66" value="Result" style="text;html=1;strokeColor=none;fillColor=none;align=center;verticalAlign=middle;whiteSpace=wrap;rounded=0;" vertex="1" parent="GkdboyqOjX0dJ93F5Otj-69">
                    <mxGeometry x="250" width="110" height="50" as="geometry"/>
                </mxCell>
                <mxCell id="GkdboyqOjX0dJ93F5Otj-67" value="Ingredients" style="rounded=1;whiteSpace=wrap;html=1;" vertex="1" parent="GkdboyqOjX0dJ93F5Otj-69">
                    <mxGeometry x="300" y="50" width="250" height="160" as="geometry"/>
                </mxCell>
                <mxCell id="GkdboyqOjX0dJ93F5Otj-68" value="Instructions" style="rounded=1;whiteSpace=wrap;html=1;" vertex="1" parent="GkdboyqOjX0dJ93F5Otj-69">
                    <mxGeometry x="300" y="190" width="250" height="160" as="geometry"/>
                </mxCell>
                <mxCell id="GkdboyqOjX0dJ93F5Otj-70" value="" style="group" vertex="1" connectable="0" parent="1">
                    <mxGeometry x="70" y="990" width="680" height="360" as="geometry"/>
                </mxCell>
                <mxCell id="GkdboyqOjX0dJ93F5Otj-71" value="" style="rounded=0;whiteSpace=wrap;html=1;" vertex="1" parent="GkdboyqOjX0dJ93F5Otj-70">
                    <mxGeometry width="680" height="360" as="geometry"/>
                </mxCell>
                <mxCell id="GkdboyqOjX0dJ93F5Otj-72" value="img" style="rounded=1;whiteSpace=wrap;html=1;" vertex="1" parent="GkdboyqOjX0dJ93F5Otj-70">
                    <mxGeometry y="50" width="250" height="280" as="geometry"/>
                </mxCell>
                <mxCell id="GkdboyqOjX0dJ93F5Otj-73" value="Result" style="text;html=1;strokeColor=none;fillColor=none;align=center;verticalAlign=middle;whiteSpace=wrap;rounded=0;" vertex="1" parent="GkdboyqOjX0dJ93F5Otj-70">
                    <mxGeometry x="250" width="110" height="50" as="geometry"/>
                </mxCell>
                <mxCell id="GkdboyqOjX0dJ93F5Otj-74" value="Ingredients" style="rounded=1;whiteSpace=wrap;html=1;" vertex="1" parent="GkdboyqOjX0dJ93F5Otj-70">
                    <mxGeometry x="300" y="50" width="250" height="160" as="geometry"/>
                </mxCell>
                <mxCell id="GkdboyqOjX0dJ93F5Otj-75" value="Instructions" style="rounded=1;whiteSpace=wrap;html=1;" vertex="1" parent="GkdboyqOjX0dJ93F5Otj-70">
                    <mxGeometry x="300" y="190" width="250" height="160" as="geometry"/>
                </mxCell>
                <mxCell id="GkdboyqOjX0dJ93F5Otj-76" value="" style="group" vertex="1" connectable="0" parent="1">
                    <mxGeometry x="-10" y="1490" width="764" height="298" as="geometry"/>
                </mxCell>
                <mxCell id="GkdboyqOjX0dJ93F5Otj-25" value="" style="group" vertex="1" connectable="0" parent="GkdboyqOjX0dJ93F5Otj-76">
                    <mxGeometry x="84" width="680" height="130" as="geometry"/>
                </mxCell>
                <mxCell id="GkdboyqOjX0dJ93F5Otj-21" value="" style="rounded=1;whiteSpace=wrap;html=1;" vertex="1" parent="GkdboyqOjX0dJ93F5Otj-25">
                    <mxGeometry width="150" height="130" as="geometry"/>
                </mxCell>
                <mxCell id="GkdboyqOjX0dJ93F5Otj-22" value="" style="rounded=1;whiteSpace=wrap;html=1;" vertex="1" parent="GkdboyqOjX0dJ93F5Otj-25">
                    <mxGeometry x="180" width="150" height="130" as="geometry"/>
                </mxCell>
                <mxCell id="GkdboyqOjX0dJ93F5Otj-23" value="" style="rounded=1;whiteSpace=wrap;html=1;" vertex="1" parent="GkdboyqOjX0dJ93F5Otj-25">
                    <mxGeometry x="360" width="150" height="130" as="geometry"/>
                </mxCell>
                <mxCell id="GkdboyqOjX0dJ93F5Otj-24" value="" style="rounded=1;whiteSpace=wrap;html=1;" vertex="1" parent="GkdboyqOjX0dJ93F5Otj-25">
                    <mxGeometry x="530" width="150" height="130" as="geometry"/>
                </mxCell>
                <mxCell id="GkdboyqOjX0dJ93F5Otj-52" value="Popular Cocktails&lt;br&gt;" style="text;html=1;align=center;verticalAlign=middle;resizable=0;points=[];autosize=1;strokeColor=none;fillColor=none;" vertex="1" parent="GkdboyqOjX0dJ93F5Otj-25">
                    <mxGeometry x="285" y="55" width="110" height="20" as="geometry"/>
                </mxCell>
                <mxCell id="GkdboyqOjX0dJ93F5Otj-31" value="" style="shape=flexArrow;endArrow=classic;startArrow=classic;html=1;" edge="1" parent="GkdboyqOjX0dJ93F5Otj-76">
                    <mxGeometry width="100" height="100" relative="1" as="geometry">
                        <mxPoint x="310" y="298" as="sourcePoint"/>
                        <mxPoint x="476" y="298" as="targetPoint"/>
                    </mxGeometry>
                </mxCell>
                <mxCell id="GkdboyqOjX0dJ93F5Otj-32" value="" style="group" vertex="1" connectable="0" parent="GkdboyqOjX0dJ93F5Otj-76">
                    <mxGeometry y="160" width="680" height="130" as="geometry"/>
                </mxCell>
                <mxCell id="GkdboyqOjX0dJ93F5Otj-33" value="" style="rounded=1;whiteSpace=wrap;html=1;" vertex="1" parent="GkdboyqOjX0dJ93F5Otj-32">
                    <mxGeometry width="150" height="130" as="geometry"/>
                </mxCell>
                <mxCell id="GkdboyqOjX0dJ93F5Otj-34" value="" style="rounded=1;whiteSpace=wrap;html=1;" vertex="1" parent="GkdboyqOjX0dJ93F5Otj-32">
                    <mxGeometry x="180" width="150" height="130" as="geometry"/>
                </mxCell>
                <mxCell id="GkdboyqOjX0dJ93F5Otj-35" value="" style="rounded=1;whiteSpace=wrap;html=1;" vertex="1" parent="GkdboyqOjX0dJ93F5Otj-32">
                    <mxGeometry x="360" width="150" height="130" as="geometry"/>
                </mxCell>
                <mxCell id="GkdboyqOjX0dJ93F5Otj-36" value="" style="rounded=1;whiteSpace=wrap;html=1;" vertex="1" parent="GkdboyqOjX0dJ93F5Otj-32">
                    <mxGeometry x="530" width="150" height="130" as="geometry"/>
                </mxCell>
                <mxCell id="GkdboyqOjX0dJ93F5Otj-78" value="Popular Ingredients" style="rounded=1;whiteSpace=wrap;html=1;" vertex="1" parent="1">
                    <mxGeometry x="60" y="780" width="750" height="130" as="geometry"/>
                </mxCell>
            </root>
        </mxGraphModel>
    </diagram>
</mxfile>